<svg width="19" height="19" viewBox="0 0 19 19" fill="none" xmlns="http://www.w3.org/2000/svg">
<path d="M13.1498 1.95801H5.87907C4.27258 1.95801 2.96777 3.27035 2.96777 4.8693V15.4963C2.96777 16.8539 3.94072 17.4271 5.13239 16.7709L8.81299 14.727C9.20519 14.5083 9.83873 14.5083 10.2234 14.727L13.904 16.7709C15.0957 17.4346 16.0686 16.8614 16.0686 15.4963V4.8693C16.0611 3.27035 14.7563 1.95801 13.1498 1.95801ZM11.4 9.04769H10.0801V10.4128C10.0801 10.7221 9.82365 10.9785 9.51442 10.9785C9.20519 10.9785 8.94875 10.7221 8.94875 10.4128V9.04769H7.62886C7.31963 9.04769 7.0632 8.79126 7.0632 8.48203C7.0632 8.17279 7.31963 7.91636 7.62886 7.91636H8.94875V6.64172C8.94875 6.33249 9.20519 6.07606 9.51442 6.07606C9.82365 6.07606 10.0801 6.33249 10.0801 6.64172V7.91636H11.4C11.7092 7.91636 11.9656 8.17279 11.9656 8.48203C11.9656 8.79126 11.7092 9.04769 11.4 9.04769Z" fill="#285174"/>
</svg>
