<svg width="128" height="128" viewBox="0 0 128 128" fill="none" xmlns="http://www.w3.org/2000/svg">
<mask id="path-1-inside-1_30_810" fill="white">
<path d="M128 64C128 99.3462 99.3462 128 64 128C28.6538 128 0 99.3462 0 64C0 28.6538 28.6538 0 64 0C99.3462 0 128 28.6538 128 64ZM20.226 64C20.226 88.1757 39.8243 107.774 64 107.774C88.1757 107.774 107.774 88.1757 107.774 64C107.774 39.8243 88.1757 20.226 64 20.226C39.8243 20.226 20.226 39.8243 20.226 64Z"/>
</mask>
<path d="M128 64C128 99.3462 99.3462 128 64 128C28.6538 128 0 99.3462 0 64C0 28.6538 28.6538 0 64 0C99.3462 0 128 28.6538 128 64ZM20.226 64C20.226 88.1757 39.8243 107.774 64 107.774C88.1757 107.774 107.774 88.1757 107.774 64C107.774 39.8243 88.1757 20.226 64 20.226C39.8243 20.226 20.226 39.8243 20.226 64Z" stroke="#FF6B00" stroke-width="98.4615" mask="url(#path-1-inside-1_30_810)"/>
<mask id="path-2-inside-2_30_810" fill="white">
<path d="M127.778 58.6715C128.989 73.1643 125.227 87.6373 117.113 99.7067C108.999 111.776 97.0168 120.722 83.139 125.071C69.2613 129.42 54.3161 128.913 40.7651 123.633C27.2141 118.353 15.8654 108.616 8.58829 96.0241L26.1001 85.9035C31.0775 94.5158 38.8396 101.176 48.108 104.787C57.3765 108.399 67.5985 108.745 77.0905 105.771C86.5824 102.796 94.7782 96.6774 100.328 88.4223C105.878 80.1672 108.45 70.2681 107.622 60.3555L127.778 58.6715Z"/>
</mask>
<path d="M127.778 58.6715C128.989 73.1643 125.227 87.6373 117.113 99.7067C108.999 111.776 97.0168 120.722 83.139 125.071C69.2613 129.42 54.3161 128.913 40.7651 123.633C27.2141 118.353 15.8654 108.616 8.58829 96.0241L26.1001 85.9035C31.0775 94.5158 38.8396 101.176 48.108 104.787C57.3765 108.399 67.5985 108.745 77.0905 105.771C86.5824 102.796 94.7782 96.6774 100.328 88.4223C105.878 80.1672 108.45 70.2681 107.622 60.3555L127.778 58.6715Z" stroke="#EDF2F7" stroke-width="98.4615" mask="url(#path-2-inside-2_30_810)"/>
</svg>
