<svg width="36" height="36" viewBox="0 0 36 36" fill="none" xmlns="http://www.w3.org/2000/svg">
<path d="M28.0345 17.2952C27.1795 17.0702 26.1745 16.9502 24.9745 16.9502C23.3095 16.9502 22.6945 17.3552 21.8395 18.0002C21.7945 18.0302 21.7495 18.0752 21.7045 18.1202L20.2795 19.6352C19.0945 20.9102 16.9195 20.9102 15.7195 19.6352L14.2945 18.1352C14.2495 18.0752 14.2045 18.0302 14.1595 18.0002C13.2895 17.3552 12.6745 16.9502 11.0245 16.9502C9.82453 16.9502 8.81953 17.0552 7.96453 17.2952C4.39453 18.2552 4.39453 21.0902 4.39453 23.5802V24.9752C4.39453 28.7402 4.39453 33.0002 12.4195 33.0002H23.5795C28.9045 33.0002 31.6045 30.3002 31.6045 24.9752V23.5802C31.6045 21.0902 31.6045 18.2552 28.0345 17.2952Z" fill="#14446D"/>
<path d="M22.1846 3H13.8146C7.18457 3 7.18457 6.525 7.18457 9.63V15.18C7.24457 15.15 7.31957 15.135 7.37957 15.12C8.42957 14.835 9.61457 14.7 11.0246 14.7C13.3346 14.7 14.4296 15.375 15.5096 16.2C15.6596 16.305 15.8096 16.44 15.9446 16.59L17.3546 18.075C17.5046 18.24 17.7446 18.33 17.9996 18.33C18.2546 18.33 18.4946 18.24 18.6296 18.09L20.0696 16.575C20.1896 16.455 20.3246 16.32 20.4746 16.215C21.5846 15.375 22.6646 14.7 24.9746 14.7C26.3846 14.7 27.5696 14.835 28.6196 15.12C28.6796 15.135 28.7546 15.15 28.8146 15.18V9.63C28.8146 6.525 28.8146 3 22.1846 3ZM20.3246 12.75H15.6746C15.1046 12.75 14.6246 12.27 14.6246 11.7C14.6246 11.115 15.1046 10.65 15.6746 10.65H20.3246C20.8946 10.65 21.3746 11.115 21.3746 11.7C21.3746 12.27 20.8946 12.75 20.3246 12.75ZM21.4946 8.565H14.5046C13.9346 8.565 13.4696 8.085 13.4696 7.515C13.4696 6.93 13.9346 6.465 14.5046 6.465H21.4946C22.0646 6.465 22.5296 6.93 22.5296 7.515C22.5296 8.085 22.0646 8.565 21.4946 8.565Z" fill="#14446D"/>
</svg>
