<svg  width="36" height="36" viewBox="0 0 36 36" fill="none" xmlns="http://www.w3.org/2000/svg">
<path d="M30.0604 10.2295L21.4203 4.18454C19.0653 2.53454 15.4504 2.62454 13.1854 4.37954L5.67035 10.2445C4.17035 11.4145 2.98535 13.8145 2.98535 15.7045V26.0545C2.98535 29.8795 6.09035 32.9995 9.91535 32.9995H26.0854C29.9103 32.9995 33.0154 29.8945 33.0154 26.0695V15.8995C33.0154 13.8745 31.7104 11.3845 30.0604 10.2295ZM19.1254 26.9995C19.1254 27.6145 18.6154 28.1245 18.0004 28.1245C17.3854 28.1245 16.8754 27.6145 16.8754 26.9995V22.4995C16.8754 21.8845 17.3854 21.3745 18.0004 21.3745C18.6154 21.3745 19.1254 21.8845 19.1254 22.4995V26.9995Z" fill="#14446D"/>
</svg>

