<svg width="178" height="52" viewBox="0 0 178 52" fill="none" xmlns="http://www.w3.org/2000/svg">
<rect x="6.72559" y="3.50195" width="58.5986" height="9.4749" transform="rotate(45.2225 6.72559 3.50195)" fill="#FF6B00"/>
<path d="M9.41613 21.4824L0.371094 33.9193V50.8788H9.41613V21.4824Z" fill="black"/>
<path d="M34.2906 29.3838L43.6851 17.2087L44.1666 0.25612L35.1253 -0.000685274L34.2906 29.3838Z" fill="black"/>
<path d="M71.1568 38C69.7974 38 68.7022 37.8773 67.8714 37.6318C67.0407 37.3863 66.3987 36.9804 65.9455 36.4139C65.4924 35.8475 65.1903 35.1017 65.0392 34.1765C64.8882 33.2513 64.8126 32.1089 64.8126 30.7495V29.8432H67.5316V30.7495C67.5316 31.8824 67.5929 32.784 67.7157 33.4543C67.8384 34.1151 68.0414 34.6202 68.3246 34.9695C68.6078 35.3188 68.9807 35.5454 69.4433 35.6492C69.9059 35.7437 70.4771 35.7909 71.1568 35.7909H77.5011C78.4074 35.7909 79.1532 35.7106 79.7385 35.5501C80.3238 35.3802 80.7864 35.1253 81.1263 34.7854C81.4662 34.4455 81.7022 34.016 81.8344 33.4967C81.9665 32.9775 82.0326 32.3638 82.0326 31.6558V16.2484H84.7516V31.6558C84.7516 32.7887 84.6288 33.7564 84.3834 34.5588C84.1379 35.3613 83.732 36.0174 83.1655 36.5272C82.5991 37.037 81.8533 37.41 80.9281 37.646C80.0029 37.882 78.8605 38 77.5011 38H71.1568ZM107.254 15.7953C108.915 15.7953 110.313 15.8991 111.445 16.1068C112.588 16.3051 113.527 16.6119 114.263 17.0273C115 17.4332 115.566 17.9478 115.963 18.5709C116.359 19.1939 116.647 19.9256 116.827 20.7658C117.015 21.6061 117.124 22.5549 117.152 23.6122C117.19 24.6696 117.209 25.8403 117.209 27.1242C117.209 28.4082 117.19 29.5788 117.152 30.6362C117.124 31.6936 117.015 32.6424 116.827 33.4826C116.647 34.3228 116.359 35.0545 115.963 35.6776C115.566 36.3007 115 36.8199 114.263 37.2353C113.527 37.6413 112.588 37.9434 111.445 38.1416C110.313 38.3493 108.915 38.4532 107.254 38.4532H99.0685C97.407 38.4532 96.005 38.3493 94.8627 38.1416C93.7298 37.9434 92.7951 37.6413 92.0587 37.2353C91.3224 36.8199 90.7512 36.3007 90.3452 35.6776C89.9487 35.0545 89.6561 34.3228 89.4673 33.4826C89.2879 32.6424 89.184 31.6936 89.1557 30.6362C89.1274 29.5788 89.1132 28.4082 89.1132 27.1242C89.1132 25.8403 89.1274 24.6696 89.1557 23.6122C89.184 22.5549 89.2879 21.6061 89.4673 20.7658C89.6561 19.9256 89.9487 19.1939 90.3452 18.5709C90.7512 17.9478 91.3224 17.4332 92.0587 17.0273C92.7951 16.6119 93.7298 16.3051 94.8627 16.1068C96.005 15.8991 97.407 15.7953 99.0685 15.7953H107.254ZM107.254 36.1874C108.453 36.1874 109.463 36.1543 110.284 36.0882C111.115 36.0127 111.799 35.8664 112.338 35.6492C112.876 35.4321 113.291 35.1206 113.584 34.7146C113.876 34.3087 114.089 33.7705 114.221 33.1002C114.353 32.4299 114.429 31.6086 114.448 30.6362C114.476 29.6543 114.49 28.4837 114.49 27.1242C114.49 25.7647 114.476 24.5988 114.448 23.6264C114.429 22.6446 114.353 21.8185 114.221 21.1482C114.089 20.4779 113.876 19.9398 113.584 19.5338C113.291 19.1279 112.876 18.8163 112.338 18.5992C111.809 18.382 111.129 18.2404 110.298 18.1743C109.477 18.0988 108.462 18.0611 107.254 18.0611H99.0685C97.8601 18.0611 96.8405 18.0988 96.0097 18.1743C95.1884 18.2404 94.5086 18.382 93.9705 18.5992C93.4324 18.8163 93.017 19.1279 92.7243 19.5338C92.4317 19.9398 92.2192 20.4779 92.0871 21.1482C91.9549 21.8185 91.8794 22.6446 91.8605 23.6264C91.8416 24.5988 91.8322 25.7647 91.8322 27.1242C91.8322 28.4837 91.8416 29.6543 91.8605 30.6362C91.8888 31.6086 91.9691 32.4299 92.1012 33.1002C92.2334 33.7705 92.4411 34.3087 92.7243 34.7146C93.017 35.1206 93.4324 35.4321 93.9705 35.6492C94.5086 35.8664 95.1884 36.0127 96.0097 36.0882C96.8405 36.1543 97.8601 36.1874 99.0685 36.1874H107.254ZM121.741 38V16.2484H139.881C141.241 16.2484 142.336 16.3617 143.166 16.5883C143.997 16.8054 144.635 17.1311 145.078 17.5654C145.531 17.9902 145.833 18.5237 145.985 19.1656C146.136 19.8076 146.211 20.544 146.211 21.3748C146.211 21.979 146.159 22.5124 146.055 22.975C145.951 23.4376 145.815 23.8388 145.645 24.1787C145.475 24.5186 145.281 24.8065 145.064 25.0425C144.847 25.2691 144.625 25.4579 144.398 25.609C143.87 25.9677 143.266 26.1707 142.586 26.2179C143.436 26.2651 144.191 26.4728 144.852 26.841C145.135 27.0015 145.409 27.2045 145.673 27.4499C145.947 27.6859 146.188 27.9833 146.395 28.3421C146.612 28.6914 146.787 29.1068 146.919 29.5883C147.051 30.0603 147.117 30.6079 147.117 31.231C147.117 31.9862 147.08 32.6801 147.004 33.3126C146.938 33.9357 146.796 34.4975 146.579 34.9978C146.362 35.4982 146.051 35.9372 145.645 36.3148C145.239 36.6925 144.696 37.0087 144.016 37.2636C143.346 37.5091 142.52 37.6932 141.538 37.8159C140.566 37.9386 139.4 38 138.04 38H121.741ZM137.134 35.7342C138.191 35.7342 139.107 35.72 139.881 35.6917C140.655 35.654 141.311 35.5832 141.849 35.4793C142.388 35.366 142.822 35.2102 143.152 35.012C143.483 34.8043 143.738 34.5352 143.917 34.2048C144.106 33.8649 144.233 33.4543 144.299 32.9728C144.365 32.4913 144.398 31.9107 144.398 31.231C144.398 30.7023 144.365 30.2444 144.299 29.8573C144.233 29.4608 144.106 29.1304 143.917 28.866C143.738 28.5923 143.483 28.3751 143.152 28.2146C142.822 28.0447 142.388 27.9125 141.849 27.8181C141.311 27.7237 140.655 27.6623 139.881 27.634C139.107 27.5963 138.191 27.5774 137.134 27.5774H124.46V35.7342H137.134ZM137.134 25.3116C138.059 25.3116 138.857 25.2927 139.527 25.2549C140.197 25.2172 140.768 25.1464 141.241 25.0425C141.713 24.9387 142.095 24.7971 142.388 24.6177C142.68 24.4289 142.907 24.1881 143.067 23.8955C143.237 23.6028 143.351 23.2535 143.407 22.8475C143.464 22.4321 143.492 21.9412 143.492 21.3748C143.492 20.7706 143.426 20.2796 143.294 19.902C143.162 19.5244 142.926 19.2364 142.586 19.0382C142.246 18.8305 141.783 18.6936 141.198 18.6275C140.622 18.552 139.881 18.5142 138.975 18.5142H124.46V25.3116H137.134ZM165.357 25.7647C166.849 25.7647 168.128 25.8261 169.195 25.9488C170.262 26.0716 171.158 26.2557 171.885 26.5011C172.622 26.7371 173.207 27.0345 173.641 27.3933C174.076 27.752 174.411 28.1627 174.647 28.6253C174.883 29.0785 175.034 29.5883 175.1 30.1547C175.175 30.7212 175.213 31.3348 175.213 31.9957C175.213 32.6565 175.152 33.2796 175.029 33.8649C174.916 34.4408 174.708 34.9695 174.406 35.451C174.104 35.9325 173.693 36.362 173.174 36.7397C172.655 37.1173 171.994 37.4383 171.191 37.7026C170.389 37.967 169.421 38.1652 168.288 38.2974C167.165 38.439 165.848 38.5098 164.337 38.5098H160.712C159.353 38.5098 158.163 38.4579 157.144 38.354C156.124 38.2502 155.246 38.0944 154.51 37.8867C153.773 37.6696 153.164 37.4005 152.683 37.0795C152.201 36.7491 151.814 36.3667 151.522 35.9325C151.238 35.4888 151.04 34.9884 150.927 34.4314C150.813 33.8649 150.757 33.2418 150.757 32.5621H153.476C153.476 33.4118 153.599 34.0774 153.844 34.5588C154.089 35.0403 154.495 35.4038 155.062 35.6492C155.628 35.8853 156.369 36.0363 157.285 36.1024C158.21 36.159 159.353 36.1874 160.712 36.1874H164.337C165.923 36.1874 167.24 36.1118 168.288 35.9608C169.336 35.8097 170.172 35.569 170.795 35.2386C171.418 34.9081 171.857 34.4786 172.112 33.9499C172.367 33.4118 172.494 32.7604 172.494 31.9957C172.494 31.231 172.405 30.5937 172.225 30.0839C172.055 29.5741 171.711 29.1681 171.191 28.866C170.682 28.5639 169.959 28.3515 169.025 28.2288C168.09 28.0966 166.868 28.0305 165.357 28.0305H161.618C159.957 28.0305 158.531 27.9692 157.342 27.8464C156.162 27.7237 155.17 27.549 154.368 27.3225C153.565 27.0864 152.924 26.7985 152.442 26.4586C151.961 26.1093 151.592 25.7128 151.337 25.2691C151.092 24.8254 150.932 24.3345 150.856 23.7963C150.78 23.2488 150.743 22.6587 150.743 22.0262C150.743 21.3653 150.799 20.7517 150.913 20.1852C151.035 19.6188 151.257 19.109 151.578 18.6558C151.899 18.1932 152.338 17.7826 152.895 17.4238C153.452 17.0651 154.165 16.7677 155.034 16.5316C155.912 16.2862 156.964 16.1021 158.191 15.9794C159.419 15.8566 160.863 15.7953 162.525 15.7953H165.244C166.603 15.7953 167.793 15.8472 168.812 15.951C169.832 16.0454 170.71 16.2012 171.446 16.4184C172.183 16.6261 172.792 16.8904 173.273 17.2114C173.764 17.5229 174.151 17.9006 174.434 18.3443C174.727 18.7786 174.93 19.2742 175.043 19.8312C175.157 20.3882 175.213 21.0066 175.213 21.6863H172.494C172.494 20.8366 172.372 20.1711 172.126 19.6896C171.881 19.2081 171.475 18.8494 170.908 18.6133C170.342 18.3679 169.596 18.2168 168.671 18.1602C167.746 18.0941 166.603 18.0611 165.244 18.0611H162.525C160.712 18.0611 159.221 18.1271 158.05 18.2593C156.879 18.382 155.954 18.5945 155.274 18.8966C154.595 19.1987 154.122 19.6046 153.858 20.1144C153.594 20.6242 153.462 21.2615 153.462 22.0262C153.462 22.4982 153.495 22.9183 153.561 23.2865C153.627 23.6547 153.759 23.9804 153.957 24.2637C154.165 24.5374 154.453 24.7687 154.821 24.9575C155.189 25.1464 155.676 25.3021 156.28 25.4249C156.884 25.5476 157.62 25.6373 158.489 25.6939C159.367 25.7411 160.41 25.7647 161.618 25.7647H165.357Z" fill="black"/>
</svg>
