<svg width="36" height="36" viewBox="0 0 36 36" fill="none" xmlns="http://www.w3.org/2000/svg">
<path d="M13.5 3C9.57 3 6.375 6.195 6.375 10.125C6.375 13.98 9.39 17.1 13.32 17.235C13.44 17.22 13.56 17.22 13.65 17.235C13.68 17.235 13.695 17.235 13.725 17.235C13.74 17.235 13.74 17.235 13.755 17.235C17.595 17.1 20.61 13.98 20.625 10.125C20.625 6.195 17.43 3 13.5 3Z" fill="#14446D"/>
<path d="M21.1204 21.2253C16.9354 18.4353 10.1104 18.4353 5.89543 21.2253C3.99043 22.5003 2.94043 24.2253 2.94043 26.0703C2.94043 27.9153 3.99043 29.6253 5.88043 30.8853C7.98043 32.2953 10.7404 33.0003 13.5004 33.0003C16.2604 33.0003 19.0204 32.2953 21.1204 30.8853C23.0104 29.6103 24.0604 27.9003 24.0604 26.0403C24.0454 24.1953 23.0104 22.4853 21.1204 21.2253Z" fill="#14446D"/>
<path d="M29.985 11.0102C30.225 13.9202 28.155 16.4702 25.29 16.8152C25.275 16.8152 25.275 16.8152 25.26 16.8152H25.215C25.125 16.8152 25.035 16.8151 24.96 16.8451C23.505 16.9201 22.17 16.4551 21.165 15.6001C22.71 14.2201 23.595 12.1501 23.415 9.90015C23.31 8.68515 22.89 7.57515 22.26 6.63015C22.83 6.34515 23.49 6.16515 24.165 6.10515C27.105 5.85015 29.73 8.04015 29.985 11.0102Z" fill="#292D32"/>
<path d="M32.9853 24.8846C32.8653 26.3396 31.9354 27.5996 30.3754 28.4546C28.8754 29.2796 26.9854 29.6696 25.1104 29.6246C26.1904 28.6496 26.8203 27.4346 26.9403 26.1446C27.0903 24.2846 26.2054 22.4996 24.4354 21.0746C23.4304 20.2796 22.2604 19.6496 20.9854 19.1846C24.3004 18.2246 28.4704 18.8696 31.0354 20.9396C32.4154 22.0496 33.1203 23.4446 32.9853 24.8846Z" fill="#292D32"/>
</svg>
